- 
http://www.Speed.Cd      fast  and The Hottest Private Tracker on the net

   signup is open now

Please Seed back to make the speed Faster!!!

------------------nfo--------------------------
-[pre][img]http://i824.photobucket.com/albums/zz161/akosipalos/SB.jpg[/img]

*******************************************************************************
            Salvation.Boulevard.2011.LiMiTED.BRRip.XviD.AC3-PRESTiGE
*******************************************************************************


[color=red]General Information:[/color]

Complete name                    : Salvation.Boulevard.2011.LiMiTED.BRRip.XviD.AC3-PRESTiGE
Format                           : AVI
Format/Info                      : Audio Video Interleave
File size                        : 1.82 GiB
Duration                         : 1h 36mn
Overall bit rate                 : 2 709 Kbps
Subs				 : N/A
Source				 : Limited.720p.BluRay.x264-SAiMORNY Many THANKS
Encoder				 : [b][color=purple]akosipalos[/color][/b]


iMDB: http://www.imdb.com/title/tt1251743/      


[color=red]Video[/color]

ID                               : 0
Format                           : MPEG-4 Visual
Format profile                   : Advanced Simple@L5
Format settings, BVOP            : 2
Format settings, QPel            : No
Format settings, GMC             : No warppoints
Format settings, Matrix          : Default (H.263)
Codec ID                         : XVID
Codec ID/Hint                    : XviD
Duration                         : 1h 36mn
Bit rate                         : 2 253 Kbps
Width                            : 720 pixels
Height                           : 384 pixels
Display aspect ratio             : 1.875
Frame rate                       : 24.000 fps
Color space                      : YUV
Chroma subsampling               : 4:2:0
Bit depth                        : 8 bits
Scan type                        : Progressive
Compression mode                 : Lossy
Bits/(Pixel*Frame)               : 0.340
Stream size                      : 1.51 GiB (83%)
Writing library                  : XviD 1.2.1 (UTC 2008-12-04)

[color=red]Audio[/color]

ID                               : 1
Format                           : AC-3
Format/Info                      : Audio Coding 3
Mode extension                   : CM (complete main)
Codec ID                         : 2000
Duration                         : 1h 36mn
Bit rate mode                    : Constant
Bit rate                         : 448 Kbps
Channel(s)                       : 6 channels
Channel positions                : Front: L C R, Side: L R, LFE
Sampling rate                    : 48.0 KHz
Bit depth                        : 16 bits
Compression mode                 : Lossy
Stream size                      : 308 MiB (17%)
Alignment                        : Aligned on interleaves
Interleave, duration             : 64 ms (1.54 video frames)
Interleave, preload duration     : 192 ms


[color=red]Plot:[/color]

Set in the world of mega-churches in which a former Deadhead-turned-born again-Christian 
finds himself on the run from fundamentalist members of his mega-church who will do anything 
to protect their larger-than-life pastor.


[color=red]Cast:[/color]

Greg Kinnear, Pierce Brosnan and Marisa Tomei


[color=red]Screens:[/color]

[img]http://i824.photobucket.com/albums/zz161/akosipalos/1-154.png[/img]

[img]http://i824.photobucket.com/albums/zz161/akosipalos/2-133.png[/img]

[img]http://i824.photobucket.com/albums/zz161/akosipalos/3-133.png[/img]

[img]http://i824.photobucket.com/albums/zz161/akosipalos/4-128.png[/img]


[color=red]Release Notes:[/color]

WE DONT RELEASE EVERYTHING TO OTHERS SITES YOU WANT MORE OF OUR STUFF COME FIND US AT .......

WE ARE LOOKING FOR SUPPLIERS BLURAY CAM R5 PRE RETAIL DVD GOT SOMETHING WE MIGHT LIKE WHEN YOU FIND US TELL US.......



ENCODER'S - ANYTHING AT ALL EMAIL US AT..... prestige@hushmail.me

** ** ** ** ** ** ** ** **

PRESTiGE is the level of respect at which one is regarded by others....RIzE Above Or Sink Below...


-------------------------------------------------------------------------------
                                 GREETZ:
-------------------------------------------------------------------------------


[b]| Twisted | Bigguy | CTFX | Whitestag13 | Jungledave | PA4U2C | mtyy | floridajoe | marsby | cld | Stortrapp | Stoner |
Rock | Ulap | rizal | mannilim | musikera | centserick2 | AMB | RiZAL Team RG | rock3r | canislupus | sickie | fun2knytz and
To All Encoders Past And Present...[/b]


[img]http://i824.photobucket.com/albums/zz161/akosipalos/PRESTiGE-3.png[/img]


[b][color=red]PRESTiGE[/color] is the level of respect at which one is regarded by others....RIzE Above Or Sink Below...[/b]


-------------------------------------------------------------------------------
Generated with Cool NFO Creator - http://fly.to/coolbeans
-------------------------------------------------------------------------------
[/pre]